<svg id="Слой_1" data-name="Слой 1" xmlns="http://www.w3.org/2000/svg" viewBox="0 0 150.26 47.39"><defs><style>.cls-1,.cls-2,.cls-3{fill:#333;stroke:#000;stroke-miterlimit:10}.cls-2{stroke-width:1.9px}.cls-3{stroke-linecap:round;stroke-width:3.5px}</style></defs><path class="cls-1" d="m125.92 340.7-1.64.94a11.89 11.89 0 0 0-4.32 4.25l-1.12 1.88-10.64-10.65 7.07-7.08Z" transform="translate(-93.81 -315.66)"/><path class="cls-1" transform="rotate(-45 -316.9275 288.3357)" d="M107.7 331.84h6.6v2.17h-6.6z"/><path class="cls-1" d="m119.38 353.75.19-.32a36.13 36.13 0 0 1 12.32-12.15 11.34 11.34 0 0 0-8.81 2.45c-4.49 3.82-3.76 9.63-3.7 10.02Z" transform="translate(-93.81 -315.66)"/><path class="cls-1" d="M124.82 348.25c.71.62 1.36 1.08 2.06 1.7a25 25 0 0 1-2.86 2.49 25.41 25.41 0 0 1-3.78 2.35c.63-1.15 1.37-2.37 2.24-3.65a32.91 32.91 0 0 1 2.34-2.89ZM128.32 348.6c-.71-.62-1.36-1.08-2.07-1.7a26.09 26.09 0 0 1 2.86-2.49 26.51 26.51 0 0 1 3.79-2.35c-.63 1.15-1.37 2.37-2.24 3.64s-1.6 1.98-2.34 2.9Z" transform="translate(-93.81 -315.66)"/><path class="cls-1" d="M128.32 348.6c-.71-.62-1.36-1.08-2.07-1.7a26.09 26.09 0 0 1 2.86-2.49 26.51 26.51 0 0 1 3.79-2.35c-.63 1.15-1.37 2.37-2.24 3.64s-1.6 1.98-2.34 2.9Z" transform="translate(-93.81 -315.66)"/><rect class="cls-1" x="128.12" y="349.23" width="2.08" height="3.16" rx=".93" ry=".93" transform="rotate(-50.71 -250.8034 291.9653)"/><path class="cls-2" transform="rotate(-45 -299.9265 282.8336)" d="M118.79 321.91h18.44v11.02h-18.44z"/><path class="cls-2" d="m26.41 11.76 7.79 7.79M29.09 9.08l7.79 7.79M31.66 6.62l7.67 7.67M34.18 3.99l7.79 7.78M39.56 4.08 26.52 17.12M41.94 6.45 28.89 19.49"/><path class="cls-2" transform="rotate(-45 -322.3676 305.259)" d="M96.35 344.35h18.44v11.02H96.35z"/><path class="cls-2" d="m3.96 34.2 7.8 7.79M6.65 31.52l7.79 7.79M9.22 29.06l7.67 7.67M11.74 26.43l7.79 7.79M17.12 26.52 4.08 39.56M19.49 28.89 6.45 41.93"/><path class="cls-3" d="M130.17 355.3a3.38 3.38 0 0 0 2.91-1.15 3.17 3.17 0 0 0 .61-2.38M130 358.13a5.91 5.91 0 0 0 6.38-5.4h0a6.16 6.16 0 0 0 0-1.06" transform="translate(-93.81 -315.66)"/><path class="cls-3" d="M130.22 361.28a8.71 8.71 0 0 0 9.31-8.07h0a8.13 8.13 0 0 0 0-1" transform="translate(-93.81 -315.66)"/><path d="M156.4 329.3h2.24v9.8H157l-3.78-5.32v5.32h-2.24v-9.8h1.68l3.78 5.32ZM162.56 336.95h3.92v2.16h-6.16v-9.8h6.09v2.16h-3.85v1.62h3.5v2.13h-3.5ZM169.74 339.1l-2.7-9.8h2.35l1.69 6.86 1.92-6.86h1.82l1.89 6.86 1.69-6.86h2.35l-2.7 9.8h-2.55l-1.6-5.78-1.6 5.78ZM187.45 336.95h3.92v2.16h-6.16v-9.8h6.09v2.16h-3.85v1.62H191v2.13h-3.5ZM197.79 339.1l-1.85-3.22h-1.06v3.22h-2.24v-9.8h3.92a3.35 3.35 0 0 1 3.36 3.36 3 3 0 0 1-.5 1.66 3.4 3.4 0 0 1-1.31 1.18l2.09 3.6Zm-2.91-7.7v2.52h1.68a1 1 0 0 0 .79-.36 1.38 1.38 0 0 0 0-1.79 1 1 0 0 0-.79-.36ZM207.47 339.1l-.49-1.54h-3.64l-.49 1.54h-2.45l3.33-9.8h2.86l3.33 9.8Zm-3.47-3.64h2.3l-1.15-3.6ZM160.15 348.65v.84a4.63 4.63 0 0 1-1.37 3.51 4.8 4.8 0 0 1-3.46 1.31 5.2 5.2 0 0 1-3.79-1.47 4.85 4.85 0 0 1-1.5-3.61 4.92 4.92 0 0 1 1.49-3.63 5 5 0 0 1 3.65-1.48 5.2 5.2 0 0 1 2.51.62 4.62 4.62 0 0 1 1.77 1.62l-1.9 1.09a2.37 2.37 0 0 0-1-.83 3.14 3.14 0 0 0-1.44-.32 2.79 2.79 0 0 0-2.06.83 2.88 2.88 0 0 0-.82 2.11 2.75 2.75 0 0 0 .84 2.08 3.1 3.1 0 0 0 2.24.81 2.37 2.37 0 0 0 2.51-1.51h-2.62v-2ZM165.12 344.31a3.34 3.34 0 0 1 2.44 1 3.35 3.35 0 0 1 0 4.76 3.34 3.34 0 0 1-2.44 1h-1.47v3.08h-2.24v-9.8Zm0 4.62a1.11 1.11 0 0 0 .85-.36 1.36 1.36 0 0 0 0-1.79 1.11 1.11 0 0 0-.85-.36h-1.47v2.52ZM172.82 354.3a4.49 4.49 0 0 1-2.5-.65 3.54 3.54 0 0 1-1.42-1.77l1.93-1.12a2.08 2.08 0 0 0 2.06 1.36q1.33 0 1.33-.8a.75.75 0 0 0-.43-.68 7.82 7.82 0 0 0-1.6-.57 7.14 7.14 0 0 1-1.08-.38 4.5 4.5 0 0 1-.9-.55 2.22 2.22 0 0 1-.67-.86 2.9 2.9 0 0 1-.23-1.19 2.68 2.68 0 0 1 1-2.17 3.5 3.5 0 0 1 2.32-.81 4 4 0 0 1 2.13.57 3.9 3.9 0 0 1 1.46 1.65l-1.89 1.11a2.19 2.19 0 0 0-.66-.85 1.71 1.71 0 0 0-1-.29 1.22 1.22 0 0 0-.78.22.65.65 0 0 0-.27.53.78.78 0 0 0 .34.63 4.91 4.91 0 0 0 1.42.59l.91.29a6.48 6.48 0 0 1 .82.37 2.69 2.69 0 0 1 .76.55 2.76 2.76 0 0 1 .46.76 2.92 2.92 0 0 1-.81 3.28 4.09 4.09 0 0 1-2.7.78ZM185.75 354.3a5.1 5.1 0 1 1 0-10.19 5 5 0 0 1 2.44.61 4.61 4.61 0 0 1 1.76 1.66L188 347.5a2.21 2.21 0 0 0-.92-.89 2.85 2.85 0 0 0-1.34-.31 2.77 2.77 0 0 0-2.08.8 3.26 3.26 0 0 0 0 4.23 2.77 2.77 0 0 0 2.08.8 2.84 2.84 0 0 0 1.35-.32 2.17 2.17 0 0 0 .92-.88L190 352a4.51 4.51 0 0 1-1.75 1.66 5 5 0 0 1-2.5.64Z" transform="translate(-93.81 -315.66)"/><path d="M199.15 352.83a5.17 5.17 0 1 1 1.48-3.63 4.94 4.94 0 0 1-1.48 3.63Zm-5.65-1.53a3 3 0 0 0 4.07 0 3.1 3.1 0 0 0 0-4.2 3 3 0 0 0-4.07 0 3.1 3.1 0 0 0 0 4.2ZM207.35 344.31h2.24v9.8h-1.68l-3.78-5.32v5.32h-2.24v-9.8h1.68l3.78 5.32ZM217.85 344.31v2.16h-2.52v7.64h-2.24v-7.64h-2.52v-2.16ZM224 354.11l-1.85-3.22h-1.06v3.22h-2.24v-9.8h3.92a3.35 3.35 0 0 1 3.36 3.36 3 3 0 0 1-.5 1.66 3.4 3.4 0 0 1-1.31 1.18l2.09 3.6Zm-2.91-7.7v2.52h1.68a1 1 0 0 0 .79-.36 1.38 1.38 0 0 0 0-1.79 1 1 0 0 0-.79-.36ZM235.59 352.83a5.17 5.17 0 1 1 1.48-3.63 4.94 4.94 0 0 1-1.48 3.63Zm-5.65-1.53a3 3 0 0 0 4.07 0 3.1 3.1 0 0 0 0-4.2 3 3 0 0 0-4.07 0 3.1 3.1 0 0 0 0 4.2ZM240.58 352h3.5v2.16h-5.74v-9.8h2.24Z" transform="translate(-93.81 -315.66)"/></svg>